<?xml version="1.0" encoding="utf-8"?>
<!-- Generator: Adobe Illustrator 16.0.0, SVG Export Plug-In . SVG Version: 6.00 Build 0)  -->
<!DOCTYPE svg PUBLIC "-//W3C//DTD SVG 1.1//EN" "http://www.w3.org/Graphics/SVG/1.1/DTD/svg11.dtd">
<svg version="1.1" id="Layer_1" xmlns="http://www.w3.org/2000/svg" xmlns:xlink="http://www.w3.org/1999/xlink" x="0px" y="0px"
	 width="278px" height="277.999px" fill="#ffffff" viewBox="-0.001 -0.108 278 277.999" enable-background="new -0.001 -0.108 278 277.999"
	 xml:space="preserve">
<g>
	<path d="M-0.001,190.771v87.119h86.966C46.882,262.827,14.994,230.889-0.001,190.771z"/>
	<path d="M277.999,87.199V-0.108h-87.46C230.854,14.879,262.942,46.917,277.999,87.199z"/>
	<path d="M87.459-0.108h-87.46V87.2C15.056,46.918,47.144,14.879,87.459-0.108z"/>
	<path d="M138.999,54.878c-46.377,0-84.107,37.729-84.107,84.105c0,46.376,37.73,84.108,84.107,84.108
		c46.376,0,84.107-37.731,84.107-84.108C223.106,92.607,185.375,54.878,138.999,54.878z"/>
	<path d="M277.999,190.771c-14.994,40.117-46.883,72.056-86.966,87.119h86.966V190.771z"/>
</g>
</svg>
