<?xml version="1.0" encoding="utf-8"?>
<!-- Generator: Adobe Illustrator 16.0.0, SVG Export Plug-In . SVG Version: 6.00 Build 0)  -->
<!DOCTYPE svg PUBLIC "-//W3C//DTD SVG 1.1//EN" "http://www.w3.org/Graphics/SVG/1.1/DTD/svg11.dtd">
<svg version="1.1" id="Layer_1" xmlns="http://www.w3.org/2000/svg" xmlns:xlink="http://www.w3.org/1999/xlink" x="0px" y="0px"
	 width="1011.971px" height="278px" fill="#ffffff" viewBox="0 0 1011.971 278" enable-background="new 0 0 1011.971 278" xml:space="preserve">
<g>
	<path d="M-0.001,190.771v87.12h86.966C46.882,262.827,14.994,230.889-0.001,190.771z"/>
	<path d="M277.999,87.199V-0.108h-87.46C230.854,14.879,262.942,46.917,277.999,87.199z"/>
	<path d="M87.459-0.108h-87.46v87.308C15.056,46.918,47.144,14.879,87.459-0.108z"/>
	<path d="M138.999,54.878c-46.377,0-84.107,37.729-84.107,84.105c0,46.376,37.73,84.108,84.107,84.108
		c46.376,0,84.107-37.732,84.107-84.108S185.375,54.878,138.999,54.878z"/>
	<path d="M277.999,190.771c-14.994,40.117-46.883,72.056-86.966,87.12h86.966V190.771z"/>
	<g>
		<path d="M328.17,71.737c0-40.658,27.607-70.71,65.051-70.71c37.442,0,65.05,29.855,65.05,70.71s-27.607,70.709-65.05,70.709
			C355.777,142.446,328.17,112.396,328.17,71.737z M435.666,71.737c0-28.087-18.118-48.317-42.446-48.317
			s-42.447,20.23-42.447,48.317c0,28.086,18.118,48.316,42.447,48.316C417.548,120.054,435.666,99.824,435.666,71.737z"/>
		<path d="M462.93,88.038c0-31.426,20.705-53.619,49.865-53.619c17.945,0,32.267,8.444,39.341,24.355l-16.563,10.999
			c-5.521-10.017-13.805-14.534-22.947-14.534c-15.875,0-27.954,12.57-27.954,32.802c0,20.426,12.077,32.8,27.954,32.8
			c9.144,0,17.427-4.518,22.947-14.534l16.563,10.999c-7.074,15.713-21.396,24.553-39.341,24.553
			C483.635,141.857,462.93,119.466,462.93,88.038z"/>
		<path d="M617.873,134.786c-5.178,4.714-12.942,7.07-20.707,7.07c-20.188,0-31.749-12.178-31.749-35.354V56.024h-15.182V36.383
			h15.182V12.421h21.569v23.962h24.674v19.642h-24.674v49.891c0,10.211,4.485,15.712,12.767,15.712
			c4.486,0,8.803-1.376,12.078-4.321L617.873,134.786z"/>
		<path d="M615.458,88.038c0-31.426,20.705-53.619,49.004-53.619c28.643,0,49.175,22.193,49.175,53.619
			c0,31.428-20.532,53.817-49.175,53.817C636.163,141.857,615.458,119.466,615.458,88.038z M691.896,88.038
			c0-20.033-11.732-32.801-27.435-32.801c-15.528,0-27.262,12.768-27.262,32.801c0,20.034,11.733,32.802,27.262,32.802
			C680.163,120.841,691.896,108.075,691.896,88.038z"/>
		<path d="M822.685,88.038c0,32.606-19.842,53.817-46.761,53.817c-11.73,0-22.085-4.518-29.502-14.142v50.872h-21.568V35.596h20.531
			v13.749c7.247-10.018,17.944-14.927,30.539-14.927C802.843,34.419,822.685,55.632,822.685,88.038z M800.771,88.038
			c0-20.033-11.731-32.801-27.264-32.801c-15.527,0-27.436,12.768-27.436,32.801c0,20.034,11.906,32.802,27.436,32.802
			C789.038,120.84,800.771,108.075,800.771,88.038z"/>
		<path d="M922.935,35.598v104.884h-20.533v-13.354c-6.899,9.624-17.772,14.73-29.68,14.73c-23.638,0-39.686-14.73-39.686-46.354
			V35.598h21.568v56.567c0,19.052,7.938,28.086,21.567,28.086c15.012,0,25.192-10.605,25.192-31.623V35.597L922.935,35.598
			L922.935,35.598z"/>
		<path d="M931.217,130.073l8.282-18.659c8.108,6.089,20.533,10.409,32.093,10.409c13.631,0,19.325-4.32,19.325-11.589
			c0-20.034-56.939-1.179-56.939-43.015c0-19.837,15.701-32.802,40.548-32.802c12.252,0,26.229,3.339,34.51,9.034l-8.281,18.658
			c-8.801-5.892-17.599-7.855-26.397-7.855c-13.115,0-19.328,4.911-19.328,11.785c0,21.213,56.943,2.356,56.943,43.407
			c0,19.643-15.876,32.408-41.758,32.408C954.854,141.857,939.499,136.75,931.217,130.073z"/>
	</g>
</g>
<g>
	<path d="M327.684,241.225c0-21.54,15.29-37.405,35.969-37.405c9.997,0,19.014,3.572,25.09,10.717l-4.606,4.938
		c-5.586-6.094-12.447-8.721-20.287-8.721c-16.563,0-29.01,13.029-29.01,30.471c0,17.442,12.447,30.471,29.01,30.471
		c7.84,0,14.701-2.626,20.287-8.826l4.606,4.938c-6.076,7.146-15.093,10.823-25.188,10.823
		C342.974,278.631,327.684,262.765,327.684,241.225z"/>
	<path d="M440.88,243.746V278h-6.665v-8.616c-3.136,5.674-9.213,9.142-17.739,9.142c-11.663,0-18.817-6.515-18.817-16.076
		c0-8.511,5.096-15.655,19.895-15.655h16.367v-3.362c0-9.457-4.998-14.605-14.603-14.605c-6.665,0-12.937,2.521-17.151,6.515
		l-3.136-5.569c5.194-4.728,12.839-7.46,20.973-7.46C433.333,222.312,440.88,229.457,440.88,243.746z M433.921,261.398v-9.036
		H417.75c-9.997,0-13.231,4.203-13.231,9.877c0,6.409,4.802,10.402,13.035,10.402C425.395,272.642,431.177,268.648,433.921,261.398z
		"/>
	<path d="M507.228,245.953V278h-6.958v-31.312c0-11.663-5.685-17.652-15.485-17.652c-11.075,0-18.033,7.355-18.033,19.964v29h-6.958
		v-55.268h6.665v10.191c3.724-6.725,10.683-10.612,19.602-10.612C498.603,222.312,507.228,230.087,507.228,245.953z"/>
	<path d="M521.141,250.366c0-16.496,11.173-28.055,26.56-28.055c8.723,0,16.073,3.678,20.189,10.928l-5.194,3.782
		c-3.528-5.568-9.017-8.195-14.995-8.195c-11.271,0-19.504,8.616-19.504,21.54c0,13.028,8.233,21.54,19.504,21.54
		c5.979,0,11.467-2.522,14.995-8.091l5.194,3.782c-4.116,7.146-11.467,10.928-20.189,10.928
		C532.313,278.525,521.141,266.862,521.141,250.366z"/>
	<path d="M625.516,252.678h-43.123c0.784,11.558,9.017,19.229,20.287,19.229c6.272,0,11.859-2.417,15.779-7.25l3.921,4.833
		c-4.606,5.884-11.761,9.036-19.896,9.036c-16.073,0-27.05-11.769-27.05-28.159c0-16.392,10.683-28.055,25.188-28.055
		s24.992,11.453,24.992,28.055C625.614,250.996,625.516,251.837,625.516,252.678z M582.393,247.108h36.557
		c-0.882-10.822-8.232-18.387-18.327-18.387C590.625,228.722,583.274,236.286,582.393,247.108z"/>
	<path d="M665.794,222.312v7.25c-0.588,0-1.176-0.104-1.666-0.104c-10.781,0-17.348,7.354-17.348,20.384V278h-6.958v-55.268h6.664
		v10.822C649.721,226.199,656.287,222.312,665.794,222.312z"/>
	<path d="M699.602,250.366c0-16.496,11.173-28.055,26.56-28.055c8.723,0,16.073,3.678,20.189,10.928l-5.194,3.782
		c-3.528-5.568-9.017-8.195-14.995-8.195c-11.271,0-19.504,8.616-19.504,21.54c0,13.028,8.233,21.54,19.504,21.54
		c5.979,0,11.467-2.522,14.995-8.091l5.194,3.782c-4.116,7.146-11.467,10.928-20.189,10.928
		C710.774,278.525,699.602,266.862,699.602,250.366z"/>
	<path d="M803.977,252.678h-43.123c0.784,11.558,9.017,19.229,20.287,19.229c6.272,0,11.859-2.417,15.779-7.25l3.921,4.833
		c-4.606,5.884-11.761,9.036-19.896,9.036c-16.073,0-27.05-11.769-27.05-28.159c0-16.392,10.683-28.055,25.188-28.055
		s24.992,11.453,24.992,28.055C804.075,250.996,803.977,251.837,803.977,252.678z M760.854,247.108h36.557
		c-0.882-10.822-8.232-18.387-18.327-18.387C769.086,228.722,761.735,236.286,760.854,247.108z"/>
	<path d="M865.718,245.953V278h-6.959v-31.312c0-11.663-5.685-17.652-15.485-17.652c-11.074,0-18.033,7.355-18.033,19.964v29h-6.958
		v-55.268h6.664v10.191c3.725-6.725,10.683-10.612,19.602-10.612C857.093,222.312,865.718,230.087,865.718,245.953z"/>
	<path d="M911.776,274.638c-2.744,2.627-6.86,3.888-10.879,3.888c-9.702,0-15.093-5.884-15.093-16.076v-33.413h-9.213v-6.304h9.213
		v-12.084h6.958v12.084h15.682v6.304h-15.682v32.993c0,6.515,3.137,10.087,8.919,10.087c2.843,0,5.685-0.946,7.645-2.837
		L911.776,274.638z"/>
	<path d="M967.442,252.678h-43.123c0.784,11.558,9.017,19.229,20.287,19.229c6.272,0,11.859-2.417,15.779-7.25l3.921,4.833
		c-4.606,5.884-11.761,9.036-19.896,9.036c-16.073,0-27.05-11.769-27.05-28.159c0-16.392,10.683-28.055,25.188-28.055
		s24.992,11.453,24.992,28.055C967.541,250.996,967.442,251.837,967.442,252.678z M924.319,247.108h36.557
		c-0.882-10.822-8.232-18.387-18.327-18.387C932.552,228.722,925.201,236.286,924.319,247.108z"/>
	<path d="M1007.721,222.312v7.25c-0.588,0-1.177-0.104-1.666-0.104c-10.781,0-17.348,7.354-17.348,20.384V278h-6.958v-55.268h6.664
		v10.822C991.647,226.199,998.214,222.312,1007.721,222.312z"/>
</g>
</svg>
